<svg xmlns="http://www.w3.org/2000/svg" fill="none" viewBox="0 0 200 200">
	<path
		d="M 154 152 C 156 134 154 124 146 118 c -18 -12 -28 -2 -46 -14 C 62 82 70 40 104 34 C 148 28 166 72 164 88 M 98 48 C 100 54 108 48 114 48 C 118 46 124 58 134 64 C 141.3334 69.3334 172 80 156 80 M 114 56 C 116 60 112 60 118 66 C 130 82 152 78 156 80 C 168 86 168 102 164 106 M 110 64 C 120 98 166 70 164 114 M 104 66 C 108 70 106 74 106 76 C 116 100 174 92 162 126 M 98 72 C 98 76 98 90 118 98 C 178 112 162 138 154 152 M 96 36 C 76 36 68 42 62 50 L 68 38 C 46 44 34 78 32 100 M 40 114 C 36 110 34 106 32 100 C 32 178 104 174 130 160 M 40 114 C 40 86 69 88 82 104 C 102 133 62 150 48 132 C 47.3334 136.6666 46.6666 141.3334 44 144 M 78 116 C 74 124 64 126 58 122 M 40 126 C 40 128 38 130 36 128 M 40 114 C 30 84 58 40 56 54 M 40 84 C 42 86 44 86 48 82 C 48 80 48 74 54 76 c 8 6 -6 10 -6 6 C 50 76 50 86 48 82 M 50 76 C 56 68 60 80 56 82 M 54 74 C 60 70 60 66 58 62 M 38 74 C 38 76 34 88 40 84 C 42.6666 88 45.3334 92 48 96 C 56 88 66 76 80 86 M 96 102 C 100 108 102 118 102 120 C 108 120 116 122 120 126 C 114.6666 133.3334 109.3334 140.6666 106 146 C 98 142 87 137 75 137 M 51 144 C 55 143 58 142 62 140 C 58 144 56 145 53 146 C 48 145 48 139 48 132 M 61 92 C 87 89 104 123 75 137 M 154 141 C 146 161 168 160 157 179 C 160 167 134 157 154 132 M 147 119 C 146 140 122 151 133 171 C 135 142 147 150 152 125 M 146 153 C 146 158 146 164 147 170 C 140 164 141 152 141 147 M 136 157 C 137.6667 156 139 156 141 154"
		style="stroke:white; fill: none; stroke-width: 5px;" stroke-linecap="round"
		stroke-linejoin="round" />
</svg>