<svg id="Floor" xmlns="http://www.w3.org/2000/svg" xmlns:xlink="http://www.w3.org/1999/xlink" viewBox="0 0 2000 1333.7179"><defs><linearGradient id="linear-gradient" x1="998.8257" y1="1333.7179" x2="998.8257" y2="736.8314" gradientUnits="userSpaceOnUse"><stop offset="0.0241"/><stop offset="0.8381"/></linearGradient><linearGradient id="linear-gradient-2" x1="998.8257" y1="894.2038" x2="998.8257" y2="1333.7179" gradientUnits="userSpaceOnUse"><stop offset="0.0192" stop-color="#d0499a" stop-opacity="0"/><stop offset="0.0401" stop-color="#d44699" stop-opacity="0.1445"/><stop offset="0.07" stop-color="#d94398" stop-opacity="0.3224"/><stop offset="0.1033" stop-color="#de3f97" stop-opacity="0.4851"/><stop offset="0.1395" stop-color="#e23c96" stop-opacity="0.6251"/><stop offset="0.1792" stop-color="#e63a95" stop-opacity="0.7427"/><stop offset="0.2237" stop-color="#e83894" stop-opacity="0.8379"/><stop offset="0.2752" stop-color="#ea3794" stop-opacity="0.911"/><stop offset="0.338" stop-color="#ec3693" stop-opacity="0.9622"/><stop offset="0.4241" stop-color="#ed3593" stop-opacity="0.9917"/><stop offset="0.6428" stop-color="#ed3593"/></linearGradient></defs><rect x="-4.2839" y="897.7565" width="2006.2191" height="435.9614" style="fill:url(#linear-gradient)"/><path d="M2001.2628,1273.885c-.0162-1.63-.0364-3.26-.0518-4.89L1899.5183,1219.28H2000.86q-.0092-1.7761-.0174-3.5527H1892.2512l-190.7617-93.26h170.7431l128.4544,49.1393q-.0045-2.2024-.0081-4.4051L1883.74,1122.4676h116.8788q-.0012-1.7764-.0033-3.5528H1874.4524l-146.2731-55.9557h130.0635l142.3627,45.8721q-.0018-2.0868-.0006-4.1738l-129.41-41.6983h124.0581l5.3666,1.5291q.0033-2.5409.0071-5.0818h-3.6443l-137.1588-39.08h116.7251l24.1641,6.1968q.0069-1.9771.0131-3.9542l-8.7445-2.2426h8.752c.0049-1.1842.0065-2.3686.0117-3.5528h-22.6177L1877.6887,991.016h101.448l21.7238,4.8721q.0114-1.93.0214-3.8605l-4.51-1.0116h4.5161c.0076-1.1841.0121-2.3685.02-3.5527H1980.53l-83.1661-18.6519h103.69q.0157-1.9086.0312-3.8175l-80.0268-15.7226h80.17q.0182-1.7764.04-3.5527h-98.2926l-63.2908-12.4346h93.3365l68.2673,10.5838q.02-1.85.0411-3.7l-44.4017-6.8838h44.4781q.0207-1.7763.04-3.5528h-67.433l-63.018-9.77h120.2533l10.2992,1.2429c.0206-1.5986.0473-3.1971.069-4.7957h-9.586l-66.2352-7.9937h75.9362q.0252-1.7763.0509-3.5527H1896.3568l-58.8754-7.1055H2001.884c.0184-1.1842.0322-2.3686.0512-3.5527H-4.2839q.0429,1.7765.0857,3.5527H158.8354L99.96,904.862H-4.0513c.0245,1.1842.0437,2.3686.0674,3.5527H70.5227L4.2881,916.4084h-8.12q.0433,2.308.0875,4.6164l8.8132-1.0636H125.3222l-63.0181,9.77H-3.58q.03,1.7763.0573,3.5528H39.3883l-42.8145,6.6377q.0284,1.8492.0535,3.698L63.2951,933.284h93.3357L93.34,945.7186H-3.3423q.0259,1.7761.0515,3.5527H75.2567l-78.3352,15.39c.0168,1.3832.028,2.7665.0441,4.15H98.9513L15.7848,987.4633H-2.8362c.0113,1.1842.027,2.3685.0378,3.5527H-.0565l-2.7354.6135q.0176,1.9292.0327,3.8583L17.18,991.016H118.6272l-100.439,25.7574h-20.79c.0077,1.1843.0189,2.3685.0263,3.5528H4.3344l-6.8963,1.7685q.0123,1.976.0235,3.9516l22.3054-5.72H136.4922l-137.1588,39.08H-2.3858q.0078,2.2657.0131,4.5315l3.4356-.9788H125.12L-2.28,1104.01q.0032,2.0862.0067,4.172l140.3472-45.2226H268.1362l-146.2735,55.9557H-2.2574q.002,1.7763.0033,3.5528h114.83L-2.2272,1166.3844q0,2.2011.0007,4.4024l126.3108-48.3192H305.8855l-190.7617,93.26H-2.29q-.0048,1.7763-.0118,3.5527H107.8565L-2.5609,1273.2607c-.0113,1.6277-.0278,3.2554-.04,4.8832L117.8051,1219.28H311.47L133.1668,1331.4472l5.2255,2.2707L320.3051,1219.28H535.2162L416.6475,1331.7247l5.95,1.7157L542.9756,1219.28H768.8378l-61.7151,112.8144,6.5327.9767L775.9048,1219.28h224.1285v113.3027h6.7948V1219.28h223.039l62.25,113.7911,6.5327-.9767L1236.9341,1219.28h221.28L1578.5917,1333.44l5.9487-1.7157L1465.9715,1219.28h215.52l181.9126,114.4381,5.2256-2.2707L1690.3268,1219.28h199.2416ZM882.0094,897.7565h62.7177l-3.887,7.1055H874.517ZM586.1226,945.7186l32.5052-12.4346H692.86l-25.4349,12.4346Zm74.035,3.5527-32.7021,15.9873H535.0431l41.7923-15.9873Zm-85.5438-3.5527H501.9273l38.5906-12.4346H607.119Zm-85.6407,0H412.539L456.18,933.284h71.3835Zm-11.0258,3.5527-49.6164,15.9873H343.96l56.11-15.9873Zm12.9542,0h74.4252l-41.7925,15.9873H441.2851Zm34.8544,19.54h94.4326L582.036,987.4633H476.998Zm58.962,22.2046h89.6045l-40.9444,25.7574H532.0313Zm7.2671-3.5527,38.1524-18.6519h79.4818L679.97,987.4633Zm45.4194-22.2047,32.7022-15.9873h70.5739l-25.4137,15.9873Zm39.9693-19.54,25.4349-12.4346h63.2857l-19.7662,12.4346Zm32.7021-15.9874,19.9846-9.77h57.2121l-15.5307,9.77Zm-9.9492,0H627.915l25.54-9.77h66.6565Zm-83.72,0H551.5437l30.3211-9.77H641.946Zm-77.8168,0h-69.94l34.29-9.77h65.9715Zm-84.1384,0H373.0356l38.0977-9.77h77.6075Zm-96.8481,0H290.4411l43.5635-9.77h61.6962Zm1.579,3.5528h82.8l-43.6415,12.4346H310.6941Zm26.69,15.9873-56.11,15.9873H234.499l62.3415-15.9873Zm-54.381,19.54h85.8144l-57.8857,18.6519H266.0286Zm98.7685,0H514.247l-48.7578,18.6519H372.3735Zm37.4516,22.2046H574.7689l-52.6866,25.7574H400.3787Zm57.0533,29.31H627.73l-62.1224,39.08H444.8257Zm111.8014,0H745.005l-41.2085,39.08H574.443Zm5.6476-3.5528,40.9444-25.7574h92.7539l-27.16,25.7574Zm46.5918-29.31,29.6494-18.6519h80.871l-19.6677,18.6519Zm35.2971-22.2047,25.4137-15.9873H819.93l-16.8579,15.9873Zm31.0612-19.54,19.7662-12.4346h61.8582l-13.1117,12.4346Zm25.4138-15.9874,15.5306-9.77h54.7285l-10.3023,9.77Zm21.178-13.3228,12.7071-7.9937h48.5491l-8.429,7.9937Zm-8.8351,0H737.3274l16.3511-7.9937h51.9484Zm-65.5416,0H662.7421l20.8961-7.9937h60.0912Zm-76.1451,0H592.8907l24.8082-7.9937H672.13Zm-71.2966,0H515.408l28.0552-7.9937h61.2815Zm-78.7269,0H424.987l31.1707-7.9937h73.1072Zm-91.6554,0H349.8459l35.6428-7.9937h55.2364Zm-76.9447,0H261.8424l40.6871-7.9937h65.7228Zm-90.0841,0H172.1447l51.56-7.9937h59.5075Zm1.2338,3.5528h73.009l-43.5634,9.77H194.0308ZM274.6,933.284h69.1495l-48.4878,12.4346H219.1557Zm6.808,15.9873-62.3415,15.9873H132.0288l71.2856-15.9873Zm-60.7627,19.54h96.6471L251.83,987.4633H147.9134ZM253.56,991.016h94.834l-79.9376,25.7574H163.16Zm107.7881,0h94.8545L388.87,1016.7734H281.41Zm29.7438,29.31H514.8152l-79.9384,39.08H288.9322Zm46.4673,42.6329H559.96l-88.9482,55.9557H323.1013Zm131.2367,0H700.05l-59.0031,55.9557h-161.2Zm139.0144,0H854.353l-30.61,55.9557H648.8066Zm3.7462-3.5527,41.2085-39.08H877.6754l-21.3788,39.08Zm44.9548-42.633,27.16-25.7574H893.7094l-14.09,25.7574Zm30.9063-29.31,19.6678-18.6519h98.7716L895.653,987.4633Zm23.414-22.2047,16.858-15.9873h88.8568L907.8,965.2586Zm20.6043-19.54,13.1118-12.4346h80.7446l-6.8024,12.4346Zm16.858-15.9874,10.3021-9.77H932.58l-5.3447,9.77Zm14.0484-13.3228,8.429-7.9937h68.1257l-4.3729,7.9937ZM874.25,897.7565l-7.4924,7.1055H820.11l11.2949-7.1055Zm-51.6806,0-11.2949,7.1055H760.9456l14.5342-7.1055Zm-57.0386,0-14.5343,7.1055h-58.071L711.5,897.7565Zm-65.54,0-18.5745,7.1055H628.7248l22.0516-7.1055Zm-62.1688,0-22.0517,7.1055H555.9322l24.938-7.1055Zm-71.15,0-24.938,7.1055H470.0113l27.7074-7.1055Zm-84.3858,0-27.7072,7.1055H401.33l31.6825-7.1055Zm-66.51,0-31.6825,7.1055H320.6126l36.1662-7.1055Zm-78.3141,0-36.1662,7.1055h-54.675l30.5077-4.73-1.3465-2.3757Zm-148.4085,0h79.492L222.714,904.862H130.1783ZM34.5061,916.4084l66.2346-7.9937h99.0575l-51.56,7.9937Zm51.7047,13.3228,63.0182-9.77h75.2134l-49.7285,9.77Zm89.7369,3.5528h81.416l-55.4443,12.4346H112.6567ZM13.2,965.2586l81.3739-15.9873h91.5046l-71.2856,15.9873Zm19.8216,22.2047,83.1664-18.6519h89.0252l-72.7319,18.6519Zm.5994,29.31L134.06,991.016H239.3612l-90.4,25.7574Zm102.5251,42.633H13.5317l137.1588-39.08H257.43Zm12.9541,0,121.2845-39.08H379.5826l-102.1592,39.08Zm-15.7283,59.5084,146.2734-55.9557H427.61l-114.4572,55.9557Zm183.7461,96.8123H125.0722l190.7621-93.26h149.53Zm221.8448,0h-213.01l148.247-93.26H637.3009Zm231.819,0H546.7219l98.3385-93.26H821.7988Zm229.2519,0H777.8483l51.0176-93.26h171.1674Zm0-96.8123H830.81l30.61-55.9557h138.6134Zm0-59.5084h-136.67l21.3788-39.08h115.2909Zm0-42.633H886.6858l14.0906-25.7574h99.2569Zm0-29.31H902.72l10.2036-18.6519h87.11Zm0-22.2047H914.867l8.7459-15.9873h76.42Zm0-19.54H925.5564l6.8023-12.4346h67.6746Zm0-15.9874H934.3024l5.3446-9.77h60.3863Zm0-13.3228H941.5906l4.3729-7.9937h54.07Zm0-11.5464H947.907l3.8871-7.1055h48.2392Zm862.9121,214.0528h-168.723l-114.4569-55.9557h136.9066ZM1470.5613,968.8114l48.7579,18.6519h-93.98l-38.1524-18.6519Zm-90.6413-3.5528-32.7021-15.9873h72.264l41.7922,15.9873Zm51.069-15.9873h74.4261l49.6164,15.9873h-82.25Zm87.3786,0h77.8788l56.11,15.9873h-84.3727Zm-11.0258-3.5527-38.5906-12.4346h71.3849l43.6413,12.4346Zm-12.9525,0h-72.6874l-32.5053-12.4346h66.6021Zm-84.1946,0h-70.2438L1314.516,933.284H1377.69Zm-80.1938,0h-74.5315l-19.7662-12.4346h68.8628Zm7.2671,3.5527,32.702,15.9873h-83.4394l-25.4137-15.9873Zm39.9691,19.54,38.1524,18.6519h-93.562l-29.6492-18.6519Zm45.4194,22.2046,52.6866,25.7574H1368.4194l-40.9443-25.7574Zm9.95,0h96l67.3322,25.7574H1485.293Zm49.4619-22.2046h83.9889l57.8857,18.6519h-93.1168Zm96.9414,0h85.8157l65.4619,18.6519h-93.3919Zm31.4347-19.54h89.0307l62.3414,15.9873H1666.555Zm-12.469-3.5527-43.6413-12.4346h82.8l48.4879,12.4346Zm2.6394-25.7574h61.6976l43.5634,9.77h-67.1633Zm22.6652,9.77h-81.4149l-34.29-9.77h77.6067Zm-95.6131,0h-69.9417l-30.3211-9.77h65.973Zm-82.8942,0h-64.8635l-25.54-9.77h60.082Zm-76.3706,0h-61.1536l-19.9844-9.77h55.5982Zm-71.1034,0h-67.2432l-15.5306-9.77h62.7892Zm-76.0783,0h-60.5674l-10.3021-9.77H1205.69Zm5.6474,3.5528,19.7663,12.4346h-69.123L1164.4,933.284Zm25.4138,15.9873,25.4137,15.9873h-79.58l-16.8582-15.9873Zm31.0611,19.54,29.6495,18.6519H1221.53l-19.6678-18.6519ZM1318.64,991.016l40.9443,25.7574H1252.4361l-27.16-25.7574Zm46.5918,29.31,62.1225,39.08H1297.3909l-41.2086-39.08Zm8.8351,0H1482.61l79.9382,39.08h-126.359Zm118.4933,0h112.6654l102.1591,39.08H1572.4984Zm47.5533-29.31h94.8555l79.9374,25.7574H1607.4456Zm107.808,0h94.8353l90.4,25.7574H1727.8591Zm31.1024-22.2046h96.6466l72.7318,18.6519H1744.4857Zm35.8839-19.54h78.0947l71.2857,15.9873h-87.0388Zm-13.8537-3.5527-48.4877-12.4346h69.1508l55.444,12.4346Zm-21.5068-25.7574h73.0106l49.7285,9.77h-79.1759Zm33.5555-11.5465h59.51l51.56,7.9937H1753.79Zm21.372,7.9937h-70.7687l-35.6427-7.9937h65.7244Zm-88.0034,0h-59.71l-31.1708-7.9937h55.238Zm-75.1426,0h-76.222l-28.0552-7.9937h73.1065Zm-90.42,0h-64.53l-24.8082-7.9937h61.2831Zm-77.4825,0h-58.3435l-20.8962-7.9937h54.4315Zm-69.8506,0h-53.578l-16.3511-7.9937h49.033Zm-63.5281,0h-61.17l-12.707-7.9937h57.5256Zm-70.0048,0h-53.4375l-8.4291-7.9937h49.16Zm-61.1953,0h-67.6l-4.373-7.9937h63.5438Zm3.7462,3.5528,10.3021,9.77h-74.36l-5.3448-9.77Zm14.0483,13.3228,13.1119,12.4346h-82.4722l-6.8024-12.4346ZM1173.5,949.2713l16.8581,15.9873h-92.387l-8.7459-15.9873Zm20.6042,19.54,19.6678,18.6519H1110.118l-10.2037-18.6519Zm23.4141,22.2046,27.16,25.7574H1126.1521l-14.0906-25.7574Zm30.9065,29.31,41.2086,39.08H1149.4747l-21.379-39.08Zm44.9547,42.6329,59.0033,55.9557H1182.0289l-30.6107-55.9557Zm7.7579,0h131.8647l88.9481,55.9557H1360.14Zm140.7,0h127.9786l114.4569,55.9557H1530.7851Zm277.055-3.5527-102.1591-39.08h109.2l121.2844,39.08Zm263.8924,0H1860.1692l-121.2843-39.08h106.7406Zm-20.0894-42.633h-115.34l-90.4-25.7574H1862.256Zm.6006-29.31h-99.4606l-72.7318-18.6519h89.0261Zm19.8215-22.2047H1881.5228l-71.2855-15.9873h91.5061Zm-99.4567-19.54H1794.396l-55.4442-12.4346H1820.37Zm26.4455-15.9874h-88.5043l-49.7285-9.77h75.2148Zm51.7042-13.3228H1848.0788l-51.56-7.9937h99.056Zm-154.5484-18.6519,58.8754,7.1055h-92.5339l-45.831-7.1055Zm-86.7259,0-1.3468,2.3757,30.5075,4.73H1695.02l-36.1661-7.1055Zm-80.9971,0,36.1662,7.1055h-63.4827l-31.6823-7.1055Zm-76.2335,0,31.6825,7.1055h-53.2507l-27.7073-7.1055Zm-64.708,0,27.7074,7.1055h-71.7219l-24.9379-7.1055Zm-83.1507,0,24.938,7.1055h-59.84l-22.0516-7.1055Zm-69.9062,0,22.0516,7.1055h-52.6927l-18.5744-7.1055Zm-60.7227,0,18.5745,7.1055h-47.013l-14.5341-7.1055Zm-52.9227,0,14.5344,7.1055h-55.906l-11.2949-7.1055Zm-61.5017,0,11.2949,7.1055H1134.43l-7.4924-7.1055Zm-51.2138,0,7.4925,7.1055h-61.7412l-3.8871-7.1055Zm-112.3512,0h47.1485l3.887,7.1055h-51.0355Zm0,10.6582h52.9791l4.373,7.9937h-57.3521Zm0,11.5465h59.2956l5.3448,9.77h-64.64Zm0,13.3228h66.5838l6.8025,12.4346h-73.3863Zm0,15.9873h75.33l8.746,15.9873h-84.0758Zm0,19.54h86.0193l10.2036,18.6519h-96.2229Zm0,22.2046h98.1664l14.0906,25.7574h-112.257Zm0,29.31h114.2007l21.3789,39.08h-135.58Zm0,42.6329h137.5231l30.6108,55.9557H1006.8281Zm0,152.768v-93.26h170.0775l51.0179,93.26Zm228.1623,0-51.0179-93.26h172.1562l98.3388,93.26Zm227.2349,0-98.3387-93.26h163.7108l148.2469,93.26Zm222.4541,0-148.2468-93.26H1691.54l190.7617,93.26Z" style="fill:url(#linear-gradient-2)"/></svg>