<svg id="Mountains" xmlns="http://www.w3.org/2000/svg" xmlns:xlink="http://www.w3.org/1999/xlink" viewBox="0 0 2001 546.3369"><defs><linearGradient id="linear-gradient" x1="1000.6728" y1="541.9741" x2="1000.6728" gradientUnits="userSpaceOnUse"><stop offset="0" stop-color="#030202"/><stop offset="0.2141" stop-color="#1b0615"/><stop offset="0.5309" stop-color="#390a2d"/><stop offset="0.8039" stop-color="#4b0d3b"/><stop offset="1" stop-color="#510e40"/><stop offset="1" stop-color="#691e58"/><stop offset="1" stop-color="#8f397e"/><stop offset="1" stop-color="#a64995"/><stop offset="1" stop-color="#af4f9e"/></linearGradient><linearGradient id="linear-gradient-2" x1="1002.3506" y1="911.4752" x2="1002.3506" y2="365.2208" gradientUnits="userSpaceOnUse"><stop offset="0.0276" stop-color="#231f20"/><stop offset="0.0815" stop-color="#244656"/><stop offset="0.2048" stop-color="#27a7dd"/><stop offset="0.2082" stop-color="#27aae1"/></linearGradient></defs><polygon points="2001.346 541.974 0 541.974 0 238.841 100.219 298.147 177.77 292.137 248.823 252.078 346.804 217.622 453.207 213.326 518.053 109.446 607 55.491 690.87 0 783.393 55.373 1014.908 142.051 1130.12 214.186 1231.745 296.715 1320.35 323.683 1566.093 261.302 1665.221 262.628 1759.468 173.689 1849.18 165.204 2001.346 237.194 2001.346 541.974" style="fill:url(#linear-gradient)"/><path d="M1580.4961,823.2322l192-143.5145,146.1184,7.44,79.0436,56.0711L1896.8351,886.3l4.2144.84,103.6517-144.9555-88.9574-62.8394-61.483-142.2516,147.0849,69.5876v-4.349L1850.71,530.3184l-1.1979-.21-89.7127,8.4851-1.3607.6164-93.569,88.3-98.199-1.3137-.595.0709-245.1217,62.2235-87.5629-26.6513-101.2758-82.244-.23-.1642-115.211-72.1364-.4132-.2036L784.9421,420.4875l-92.3457-55.2667-2.4082.03L517.3711,474.6969l-.7208.7254L452.4481,578.2708l-105.19,4.2476.0926,2.3013-.7617-2.1731-97.98,34.4559-.366.1653-70.61,39.81-77.0437,5.97-.4261.0742L0,601.8372v4.8913l96.9386,60.0461L0,741.5981l.3632,4.8353L177.2591,800.39l189.56,8.2244L169.2229,907.1124.0158,904.704,0,911.4752H2000v-4.607ZM468.2078,682.2132l-136.7726,39.15,17.9384-134.32,102.4435-4.1367ZM1232.19,666.2893l81.968,24.9484-255.4751,108.37L988.8981,718.166ZM1762.501,542.9652l85.78-8.1132L1910.34,678.4355l-136.4694-3.292Zm6.8558,133.3514-188.4285,140.845,86.7364-185.9606,90.4678-85.3735Zm-703.0718,125.07,254.5644-107.9833,86.6826,40.6682L1330.2884,844.082ZM1411.68,736.1693l155.6539,86.6958-231.2562,20.9776Zm162.2561,85.1022L1415.3908,732.965l151.9356-102.1523,94.8527,1.2689Zm-163.1483-90.7609L1327.702,691.53,1554.333,634Zm-355.6417,72.0428L985.59,905.9443l-69.8427-48.7566L985.12,720.83ZM911.59,855.2139,784.3522,820.3461,914.8217,682.6356l66.7275,35.0683ZM779.178,819.115,671.8626,804.9286,853.0944,570.7248,911.537,679.41Zm74.1152-254.9893L683.1224,527.2238,784.5235,425.2481l224.1992,83.938ZM581.5614,501.9131l193.2272-73.402L677.8172,526.032Zm.0769-4.9564,110.25-126.7936L778.68,422.1059Zm-8.35,2.59-49.8963-23.213L679.3582,377.56Zm1.734,5.4768,100.6288,25.2148L603.7163,778.63,473.8221,683.219ZM326.5752,723.011l-145.0061,70.39,69.5436-172.2973,93.4616-32.8669ZM179.5966,785.9992l1.0094-125.3111,64.1725-36.18Zm-4.6792,9.9841L4.7985,743.001l97.0562-74.4259,74.1433-6.75ZM327.76,727.5551l43.72,76.65-185.08-8.03Zm49.0345,76.6832-44.6533-78.2868,138.2173-39.5631L598.8512,780.77Zm303.34-272.9478L849.389,567.9937,666.8246,803.92l-59.02-22.87ZM668.1823,809.0883,777.2481,823.506l-18.5737,83.3622H529.6063Zm95.2041,97.78,0,0,18.3721-82.4574L911.8,860.0465l67.0713,46.8217m80.2466-101.9743,270.5392,43.7529,21.7923,58.2214H990.5149Zm275.4366,43.7137L1569.2313,827.32l-73.35,79.5485H1356.3609Zm241.2366-21.6122,402.6518,79.8728h-476.3ZM1227.1033,662.6642l-242.14,51.6308-65.3788-34.36,210.7384-95.8642Zm-101.29-81.602L915.3559,676.7991,856.74,567.792l158.4356-56.0026Zm-606.34-101.4729L570.6538,503.4,472.0205,677.075l-15.8561-96.0683ZM376.2143,808.9329,604.698,784.7857l58.0578,22.497L521.621,906.8682H187.2088Z" transform="translate(0 -365.1383)" style="fill:url(#linear-gradient-2)"/></svg>