<svg id="Stars" xmlns="http://www.w3.org/2000/svg" xmlns:xlink="http://www.w3.org/1999/xlink" viewBox="0 0 1969.409 447.6397"><defs><linearGradient id="linear-gradient" x1="384.2575" y1="169.9142" x2="384.2575" y2="150.6414" gradientUnits="userSpaceOnUse"><stop offset="0" stop-color="#dd1e3b"/><stop offset="1" stop-color="#dd1e3b" stop-opacity="0"/></linearGradient><linearGradient id="linear-gradient-2" x1="1855.2598" y1="20.2817" x2="1855.2598" y2="1.0089" xlink:href="#linear-gradient"/><linearGradient id="linear-gradient-3" x1="1171.4729" y1="160.4848" x2="1171.4729" y2="132.979" xlink:href="#linear-gradient"/><linearGradient id="linear-gradient-4" x1="527.7518" y1="28.5147" x2="527.7518" y2="1.0089" xlink:href="#linear-gradient"/><linearGradient id="linear-gradient-5" x1="677.7692" y1="318.8128" x2="677.7692" y2="291.307" xlink:href="#linear-gradient"/><linearGradient id="linear-gradient-6" x1="864.7228" y1="95.6838" x2="864.7228" y2="81.5597" xlink:href="#linear-gradient"/><linearGradient id="linear-gradient-7" x1="1964.1185" y1="176.9763" x2="1964.1185" y2="162.8521" xlink:href="#linear-gradient"/><linearGradient id="linear-gradient-8" x1="1089.9497" y1="204.9015" x2="1089.9497" y2="190.7774" xlink:href="#linear-gradient"/><linearGradient id="linear-gradient-9" x1="130.2396" y1="74.4976" x2="130.2396" y2="60.3734" xlink:href="#linear-gradient"/><linearGradient id="linear-gradient-10" x1="315.2524" y1="448.6486" x2="315.2524" y2="434.5245" xlink:href="#linear-gradient"/><linearGradient id="linear-gradient-11" x1="1734.5579" y1="441.5865" x2="1734.5579" y2="427.4624" xlink:href="#linear-gradient"/><linearGradient id="linear-gradient-12" x1="8.8336" y1="342.6401" x2="8.8336" y2="328.516" xlink:href="#linear-gradient"/><linearGradient id="linear-gradient-13" x1="1470.0574" y1="264.5635" x2="1470.0574" y2="245.2908" xlink:href="#linear-gradient"/></defs><path d="M393.8939,169.9142H374.6212V150.6414h19.2727Zm-16.2434-3.0294h13.214v-13.214h-13.214Z" transform="translate(-1.7716 -1.0089)" style="fill:url(#linear-gradient)"/><path d="M1864.8961,20.2817h-19.2727V1.0089h19.2727Zm-16.2433-3.0294h13.214V4.0383h-13.214Z" transform="translate(-1.7716 -1.0089)" style="fill:url(#linear-gradient-2)"/><path d="M1185.2258,160.4848H1157.72V132.979h27.5058Zm-23.1823-4.3235h18.8588V137.3025h-18.8588Z" transform="translate(-1.7716 -1.0089)" style="fill:url(#linear-gradient-3)"/><path d="M541.5047,28.5147H513.9989V1.0089h27.5058Zm-23.1823-4.3235h18.8588V5.3324H518.3224Z" transform="translate(-1.7716 -1.0089)" style="fill:url(#linear-gradient-4)"/><path d="M691.5221,318.8128H664.0163V291.307h27.5058ZM668.34,314.4893h18.8588V295.6305H668.34Z" transform="translate(-1.7716 -1.0089)" style="fill:url(#linear-gradient-5)"/><path d="M871.7848,95.6838H857.6607V81.56h14.1241Zm-11.904-2.22h9.6839V83.78h-9.6839Z" transform="translate(-1.7716 -1.0089)" style="fill:url(#linear-gradient-6)"/><path d="M1971.1806,176.9763h-14.1242V162.8521h14.1242Zm-11.9041-2.22h9.684v-9.684h-9.684Z" transform="translate(-1.7716 -1.0089)" style="fill:url(#linear-gradient-7)"/><path d="M1097.0118,204.9015h-14.1241V190.7774h14.1241Zm-11.904-2.22h9.6839v-9.6839h-9.6839Z" transform="translate(-1.7716 -1.0089)" style="fill:url(#linear-gradient-8)"/><path d="M137.3016,74.4976H123.1775V60.3734h14.1241Zm-11.904-2.22h9.6839v-9.684h-9.6839Z" transform="translate(-1.7716 -1.0089)" style="fill:url(#linear-gradient-9)"/><path d="M322.3145,448.6486H308.19V434.5245h14.1242Zm-11.9041-2.22h9.684v-9.6839H310.41Z" transform="translate(-1.7716 -1.0089)" style="fill:url(#linear-gradient-10)"/><path d="M1741.62,441.5865h-14.1241V427.4624H1741.62Zm-11.904-2.22H1739.4v-9.6839h-9.6839Z" transform="translate(-1.7716 -1.0089)" style="fill:url(#linear-gradient-11)"/><path d="M15.8957,342.64H1.7716V328.516H15.8957Zm-11.904-2.22h9.6839v-9.6839H3.9917Z" transform="translate(-1.7716 -1.0089)" style="fill:url(#linear-gradient-12)"/><path d="M1479.6937,264.5635H1460.421V245.2908h19.2727Zm-16.2433-3.0293h13.214V248.32H1463.45Z" transform="translate(-1.7716 -1.0089)" style="fill:url(#linear-gradient-13)"/></svg>