<svg id="Trees" xmlns="http://www.w3.org/2000/svg" xmlns:xlink="http://www.w3.org/1999/xlink" viewBox="0 0 1494.972 475.9283"><defs><linearGradient id="New_Gradient_Swatch_9" x1="1646.4714" y1="800.0442" x2="1646.4714" y2="389.0651" gradientUnits="userSpaceOnUse"><stop offset="0" stop-color="#10080e"/><stop offset="0.1262" stop-color="#160915"/><stop offset="0.3109" stop-color="#260c29"/><stop offset="0.3877" stop-color="#2e0e33"/><stop offset="0.4381" stop-color="#360f33"/><stop offset="0.5147" stop-color="#4b1134"/><stop offset="0.6079" stop-color="#6d1436"/><stop offset="0.7142" stop-color="#9d1838"/><stop offset="0.8302" stop-color="#d91e3b"/><stop offset="0.8369" stop-color="#dd1e3b"/><stop offset="0.8724" stop-color="#de223a"/><stop offset="0.9065" stop-color="#df2d37"/><stop offset="0.9399" stop-color="#e24133"/><stop offset="0.9727" stop-color="#e75b2c"/><stop offset="1" stop-color="#eb7825"/></linearGradient><linearGradient id="New_Gradient_Swatch_9-2" x1="450.8948" y1="864.9934" x2="450.8948" y2="454.0143" xlink:href="#New_Gradient_Swatch_9"/><linearGradient id="New_Gradient_Swatch_9-3" x1="988.3408" y1="757.6823" x2="988.3408" y2="532.9045" xlink:href="#New_Gradient_Swatch_9"/></defs><path d="M1794.9969,483.2655a23.5834,23.5834,0,0,0-5.0419-8.1712c-5.598-6.7034-15.6664-10.896-29.1492-11.9969-16.8228-1.374-37.0149,2.2174-56.8563,10.1125a158.8976,158.8976,0,0,0-17.9585,8.4618,94.3941,94.3941,0,0,0-12.8593,8.0165q-2.7758,1.9555-5.3568,3.9991.75-.7776,1.5239-1.5682l-4.7956-3.4043,2.154-3.0343,5.2994,3.7618c1.5057-1.4956,3.0656-3.01,4.6726-4.5257l-6.27-4.451,2.1539-3.0343,6.9024,4.9q2.2994-2.0982,4.6973-4.16l-8.0622-5.7232,2.154-3.0343,8.8517,6.2836q2.0649-1.6983,4.1759-3.3243c.2232-.1715.4459-.3411.6687-.5111l-9.501-6.7445,2.154-3.0343,10.4725,7.4342q2.707-1.9966,5.3471-3.8359l-10.44-7.4111,2.1539-3.0343,11.5543,8.202q2.4246-1.6376,4.7416-3.13l-9.4884-6.7356,2.154-3.0343,10.7291,7.6163c1.953-1.2188,3.82-2.35,5.5786-3.3893l-5.2167-3.7032,2.1539-3.0343,6.5983,4.6839c7.3387-4.1863,12.069-6.41,12.069-6.41a17.7045,17.7045,0,0,0-2.85-2.7339,18.23,18.23,0,0,0-6.7045-3.1824c-6.4485-1.9964-14.7419-.4856-23.9514,4.4657-11.491,6.1777-23.0814,16.9924-32.6357,30.4517a122.8172,122.8172,0,0,0-8.0947,13.0357,72.95,72.95,0,0,0-4.9738,10.6042,87.6707,87.6707,0,0,0-3.2728,9.706h-1.1843q.196-2.13.308-4.3171c1.2828-3.0234,3.7672-8.7115,7.2314-15.8849l-4.06-1.4071,1.5983-4.6122,4.6281,1.6039c1.5591-3.13,3.272-6.4643,5.124-9.9263l-7.29-2.5261,1.5984-4.6123,8.0552,2.7915c1.347-2.4365,2.7554-4.9162,4.2226-7.4154l-9.5309-3.3029,1.5984-4.6122,10.4917,3.6358c1.4169-2.3246,2.881-4.6523,4.388-6.9637l-12.2548-4.2468L1667,442.2408l13.4549,4.6627q1.9769-2.897,4.0383-5.72c.2181-.2979.4363-.5933.6545-.8892l-14.4419-5.0047,1.5983-4.6123,15.9186,5.5164q2.676-3.5084,5.3253-6.7942L1677.6792,423.9l1.5983-4.6122,17.5628,6.0862q2.4522-2.9527,4.8222-5.6824l-14.4227-4.9981,1.5984-4.6123,16.3086,5.6516c2.0119-2.2521,3.9477-4.3619,5.7808-6.3168l-7.93-2.748,1.5984-4.6123,10.03,3.4757c7.7047-7.967,12.8452-12.5045,12.8452-12.5045a23.2247,23.2247,0,0,0-4.5935-2.3963,23.911,23.911,0,0,0-9.612-1.5457c-8.854-.1462-18.7436,4.802-28.5234,14.4194-12.2026,12-22.8275,29.8754-29.9172,50.3339a161.09,161.09,0,0,0-5.4072,19.3892c-.4761,2.03-.8675,3.9624-1.194,5.8083q-.5071-3.3516-1.1827-6.7322c-3.69-18.41-10.7207-35.0155-19.7966-46.7577-7.2739-9.411-15.19-14.8232-22.8144-15.7368a20.7358,20.7358,0,0,0-8.44.2,20.1369,20.1369,0,0,0-4.228,1.52s3.8841,4.502,9.5687,12.2514l9.0253-1.809.8319,4.15-7.1356,1.43c1.3455,1.8949,2.7611,3.9348,4.2254,6.1059l14.6754-2.9416.8319,4.15-12.9784,2.6014q1.7116,2.6208,3.4762,5.4483l15.8041-3.1678.8319,4.15-14.28,2.8623q1.8852,3.1306,3.7779,6.4626l14.3245-2.8712.8319,4.15-12.9957,2.6049c.1528.28.3056.5592.4579.8408q1.44,2.6617,2.7983,5.3884l12.1075-2.4268.8319,4.15-11.0276,2.21c1.0235,2.1628,2.0083,4.3346,2.9528,6.4981l9.4411-1.8924.8319,4.15-8.5764,1.7191c.6535,1.5673,1.2769,3.1172,1.8866,4.6565q-2.1941-3.5831-4.684-7.1c-9.5543-13.4593-21.1446-24.274-32.6356-30.4517-9.2095-4.9513-17.503-6.4621-23.9514-4.4657a18.229,18.229,0,0,0-6.7045,3.1824,17.7,17.7,0,0,0-2.85,2.7339s4.73,2.2238,12.0689,6.41l6.5983-4.6839,2.154,3.0343-5.2167,3.7032c1.7586,1.0395,3.6255,2.1705,5.5786,3.3893l10.729-7.6163,2.154,3.0343-9.4884,6.7356q2.3126,1.4912,4.7417,3.13l11.5542-8.202,2.154,3.0343-10.44,7.4111q2.6346,1.8384,5.3471,3.8359l10.4725-7.4342,2.154,3.0343-9.501,6.7445c.2228.17.4456.34.6687.5111q2.1093,1.6213,4.176,3.3243l8.8517-6.2836,2.154,3.0343-8.0623,5.7232q2.3943,2.0548,4.6974,4.16l6.9023-4.9,2.154,3.0343-6.27,4.451c1.6071,1.5159,3.167,3.03,4.6727,4.5257l5.2994-3.7618,2.1539,3.0343-4.7956,3.4043c2.0942,2.1383,4.0593,4.2131,5.8682,6.1709l3.0447-2.1614,2.154,3.0343-2.6712,1.8962c3.3638,3.7315,6.0162,6.858,7.73,8.926l.0011.1384q-1.7737-2.2785-3.866-4.5684a105.2494,105.2494,0,0,0-17.8437-15.2664,95.7213,95.7213,0,0,0-13.1215-7.9939,161.1124,161.1124,0,0,0-18.2961-8.3922c-20.1991-7.7981-40.7091-11.2291-57.7513-9.6608-13.6587,1.2567-23.8231,5.6124-29.4291,12.4672a23.9132,23.9132,0,0,0-5.0269,8.3372,23.2287,23.2287,0,0,0-1.1366,5.0548s6.7841-.9948,17.8426-1.7328l3.8229-9.9025,4.5539,1.7581-3.0225,7.8291c2.6764-.1372,5.5373-.2528,8.5562-.3347l6.2162-16.1018,4.5538,1.758-5.4974,14.24q3.6093-.0444,7.4528-.0125l6.6943-17.34,4.5538,1.758-6.0488,15.668q4.213.1021,8.6265.3215l6.0676-15.7168,4.5538,1.758-5.5047,14.2588c.3668.0245.7333.0486,1.1016.0746q3.4812.2449,6.9751.61L1573.4,475.71l4.5538,1.758-4.6711,12.0995c2.738.3419,5.4608.7271,8.1507,1.1464l3.9991-10.3587,4.5538,1.758-3.6329,9.41c2.8558.4937,5.6586,1.02,8.3888,1.5644l3.07-7.953,4.5538,1.758-2.7786,7.1971c3.8394.8215,7.4915,1.667,10.888,2.4976l1.7641-4.5694,4.5537,1.758-1.5476,4.0088c11.6414,2.9989,19.2663,5.5195,19.2663,5.5195s-.2015-.3721-.6572-1.04a81.1269,81.1269,0,0,1,7.239,7.742,51.2323,51.2323,0,0,0-8.7835-2.8867,80.23,80.23,0,0,0-17.7894-2,72.959,72.959,0,0,0-11.6989.5691,122.7922,122.7922,0,0,0-15.1343,2.5313c-16.0809,3.72-30.49,10.3291-40.5721,18.6089-8.0807,6.6358-12.6309,13.7322-13.2358,20.4555a18.2286,18.2286,0,0,0,.3946,7.4109,17.7081,17.7081,0,0,0,1.4451,3.6756s3.8551-3.53,10.517-8.726l-1.8239-7.8835,3.6254-.8387,1.442,6.2329c1.63-1.2315,3.3858-2.5283,5.2555-3.8713l-2.9656-12.819,3.6253-.8387,2.6227,11.3366q2.2584-1.572,4.6972-3.1959l-3.1937-13.8049,3.6254-.8387,2.8857,12.4736q2.702-1.7379,5.5806-3.4874l-2.8947-12.5124,3.6253-.8387,2.6263,11.3516c.2419-.1414.4834-.2829.7269-.4242q2.3014-1.3346,4.6622-2.5986l-2.4467-10.5759,3.6253-.8387,2.2285,9.6326c1.8739-.9555,3.7567-1.8772,5.6333-2.7633l-1.9079-8.2468,3.6254-.8387,1.7331,7.4915c2.0131-.91,4.0066-1.7772,5.9624-2.6014l-1.4649-6.3316,3.6254-.8387,1.3256,5.73c2.7739-1.1241,5.44-2.1529,7.9384-3.0817l-.8416-3.6378,3.6253-.8387.7384,3.1915c8.6282-3.0878,14.5176-4.759,14.5176-4.759s-.2864-.1487-.86-.3752a51.6334,51.6334,0,0,1,15.1274,4.6587,34.7014,34.7014,0,0,0-6.1361.3709,54.15,54.15,0,0,0-11.6606,3.1612,49.23,49.23,0,0,0-7.2,3.2613,82.881,82.881,0,0,0-8.87,5.3455c-9.1684,6.3267-16.5705,14.0511-20.8425,21.75-3.4239,6.17-4.5179,11.7535-3.2285,16.123a12.3034,12.3034,0,0,0,2.0873,4.5529,11.95,11.95,0,0,0,1.8194,1.948s1.5431-3.1722,4.434-8.0869l-3.1016-4.4948,2.067-1.4263,2.4522,3.5536c.7173-1.1774,1.4972-2.4271,2.3372-3.7341l-5.0433-7.3087,2.0669-1.4263,4.46,6.4635q1.027-1.5471,2.1544-3.1717l-5.4312-7.8707,2.067-1.4263,4.9075,7.1117q1.2642-1.7615,2.6365-3.5739l-4.9228-7.1339,2.067-1.4263,4.4661,6.472c.1167-.1488.2332-.2976.3509-.4466q1.113-1.409,2.2808-2.7882l-4.1609-6.03,2.067-1.4263,3.79,5.4919q1.4082-1.5972,2.8494-3.1325l-3.2445-4.7019,2.0669-1.4263,2.9474,4.2712c1.0374-1.0708,2.0732-2.11,3.096-3.1126l-2.491-3.61,2.067-1.4263,2.2542,3.2667c1.4618-1.394,2.88-2.7014,4.217-3.9046l-1.4313-2.074,2.067-1.4263,1.2556,1.82c4.6484-4.08,7.9295-6.5905,7.9295-6.5905s-.2166-.0222-.6326-.0221a35.9233,35.9233,0,0,1,9.8588-.8957l.8567,105.7756-8.18,181.3346H1662.94l-10.3373-178.3926-.568-107.7975q.2843-.22.5782-.4362a31.1975,31.1975,0,0,1,13.3065.4118c-.416,0-.6326.0221-.6326.0221s3.2811,2.5108,7.9295,6.5905l1.2556-1.82,2.067,1.4263-1.4313,2.074c1.3374,1.2032,2.7552,2.5106,4.217,3.9046l2.2542-3.2667,2.067,1.4263-2.491,3.61c1.0228,1.0027,2.0586,2.0418,3.096,3.1126l2.9474-4.2712,2.067,1.4263-3.2446,4.7019q1.4365,1.5328,2.8494,3.1325l3.79-5.4919,2.067,1.4263-4.1609,6.03q1.1646,1.3782,2.2808,2.7882c.1177.149.2342.2978.3509.4466l4.4661-6.472,2.0669,1.4263-4.9227,7.1339q1.3716,1.8088,2.6365,3.5739l4.9075-7.1117,2.067,1.4263-5.4312,7.8707q1.1268,1.6215,2.1544,3.1717l4.46-6.4635,2.067,1.4263-5.0434,7.3087c.84,1.307,1.62,2.5567,2.3372,3.7341l2.4522-3.5536,2.067,1.4263-3.1016,4.4948c2.8909,4.9147,4.434,8.0869,4.434,8.0869a11.95,11.95,0,0,0,1.8194-1.948,12.3034,12.3034,0,0,0,2.0873-4.5529c1.2894-4.37.1954-9.9526-3.2285-16.123-4.272-7.699-11.6741-15.4234-20.8425-21.75a82.89,82.89,0,0,0-8.87-5.3455,49.2355,49.2355,0,0,0-7.2006-3.2613,54.15,54.15,0,0,0-11.6606-3.1612,31.5354,31.5354,0,0,0-8.62-.17,49.6418,49.6418,0,0,1,12.212-5.46c-.4979.2806-.7421.4534-.7421.4534s5.6214.79,13.938,2.5346l.2744-3.0251,3.4363.3117-.3128,3.4482c2.4126.5371,4.9918,1.1448,7.6822,1.8264l.4927-5.4311,3.4364.3117-.5445,6.0016c1.9008.51,3.8418,1.0539,5.8061,1.6352l.6442-7.101,3.4364.3117-.7091,7.8169c1.8359.5765,3.6821,1.1849,5.5243,1.8256l.8283-9.1305,3.4364.3117-.9094,10.0246q2.324.8632,4.6115,1.7972c.2415.0989.4813.1984.7214.2977l.9761-10.76,3.4364.3117-1.0759,11.86q2.8625,1.2389,5.5676,2.4974l1.0726-11.8234,3.4363.3117-1.187,13.0852q2.443,1.18,4.7192,2.3415l.9748-10.7457,3.4364.3118-1.1023,12.1507c1.8875.9971,3.6644,1.9662,5.3176,2.8912l.536-5.908,3.4363.3117-.6778,7.4726c6.777,3.93,10.7649,6.685,10.7649,6.685a16.4221,16.4221,0,0,0,.8624-3.5593,16.9026,16.9026,0,0,0-.5752-6.8577c-1.4063-6.0994-6.4841-12.0424-14.7466-17.1156-10.3092-6.33-24.3815-10.5777-39.6241-11.96a113.8777,113.8777,0,0,0-14.2226-.41,67.6516,67.6516,0,0,0-10.8186.9574,74.4055,74.4055,0,0,0-16.0884,4.0877,43.9826,43.9826,0,0,0-9.9532,5.2692l-.0022-.4113a75.5332,75.5332,0,0,1,9.0782-10.3962c-.4426.6634-.6376,1.0325-.6376,1.0325s7.4941-2.5631,18.9444-5.6385l-1.5668-3.9378,4.473-1.78,1.786,4.4885c3.3413-.8536,6.9344-1.7244,10.7124-2.5735l-2.8131-7.07,4.4731-1.78,3.1086,7.8122c2.687-.565,5.4458-1.1121,8.2571-1.6279l-3.678-9.2433,4.4731-1.78,4.0488,10.1752c2.6485-.4408,5.33-.8483,8.0266-1.2133l-4.7292-11.885,4.4731-1.78,5.1923,13.049q3.4367-.3916,6.8727-.6725c.363-.0293.7241-.0569,1.0856-.0847l-5.5732-14.0062,4.4731-1.78,6.1431,15.4384q4.3438-.2641,8.5042-.4045l-6.124-15.39,4.4731-1.78,6.7776,17.0329q3.7847-.0727,7.35-.0632l-5.5658-13.9876,4.4731-1.78,6.2936,15.8165c2.978.05,5.8007.1353,8.4415.2434l-3.06-7.69,4.4731-1.78,3.87,9.727c10.9133.6159,17.6139,1.5282,17.6139,1.5282A22.8994,22.8994,0,0,0,1794.9969,483.2655Zm-157.2636,5.1473c-.0141-.025-.0268-.0491-.0409-.0741q-1.0222-1.9071-2.1362-3.8067l6.8449-1.372.8319,4.15Zm4.3082,8.9153,2.034-.4077.8319,4.15-1.3186.2643q-.4431-1.1932-.9226-2.3921C1642.4732,498.42,1642.2618,497.8779,1642.0415,497.3281Zm17.987,3.11-1.7965-1.2753,2.154-3.0343,2.4276,1.7233Q1661.38,499.1323,1660.0285,500.4382Z" transform="translate(-301.1972 -389.0651)" style="fill:url(#New_Gradient_Swatch_9)"/><path d="M599.42,548.2147a23.5822,23.5822,0,0,0-5.042-8.1712c-5.598-6.7034-15.6663-10.896-29.1491-11.9969-16.8229-1.374-37.015,2.2174-56.8563,10.1125a158.915,158.915,0,0,0-17.9585,8.4618,94.3879,94.3879,0,0,0-12.8593,8.0165q-2.7757,1.9556-5.3568,3.9992.75-.7777,1.5239-1.5683l-4.7956-3.4043,2.154-3.0343,5.2993,3.7618c1.5058-1.4956,3.0657-3.01,4.6727-4.5257l-6.27-4.451,2.1539-3.0343,6.9023,4.9q2.2995-2.0982,4.6974-4.16l-8.0622-5.7231,2.154-3.0344,8.8517,6.2836q2.0649-1.6983,4.1759-3.3242c.2232-.1716.4459-.3412.6687-.5112l-9.501-6.7444,2.154-3.0344,10.4725,7.4342q2.707-1.9967,5.3471-3.8359l-10.44-7.4111,2.154-3.0343,11.5543,8.202q2.4246-1.6376,4.7416-3.13l-9.4884-6.7356,2.154-3.0343,10.7291,7.6163c1.953-1.2188,3.82-2.35,5.5786-3.3893l-5.2168-3.7032,2.154-3.0343,6.5983,4.6839c7.3387-4.1863,12.069-6.41,12.069-6.41a17.7089,17.7089,0,0,0-2.85-2.7339,18.228,18.228,0,0,0-6.7045-3.1823c-6.4485-1.9965-14.7419-.4856-23.9514,4.4656-11.4911,6.1777-23.0814,16.9924-32.6357,30.4517a122.8009,122.8009,0,0,0-8.0947,13.0357,72.9516,72.9516,0,0,0-4.9739,10.6042,87.6915,87.6915,0,0,0-3.2728,9.706h-1.1842q.1961-2.13.308-4.317c1.2828-3.0234,3.7671-8.7116,7.2314-15.885l-4.06-1.407,1.5983-4.6122,4.6281,1.6038c1.5591-3.13,3.272-6.4643,5.124-9.9263l-7.29-2.5261,1.5983-4.6123,8.0553,2.7915c1.347-2.4365,2.7554-4.9162,4.2225-7.4154l-9.5308-3.3029,1.5984-4.6122,10.4917,3.6358c1.4169-2.3245,2.881-4.6523,4.388-6.9637l-12.2548-4.2468,1.5983-4.6123,13.4549,4.6627q1.9769-2.897,4.0383-5.72c.2181-.2979.4363-.5933.6544-.8892L475.13,500.2389l1.5983-4.6123,15.9186,5.5165q2.676-3.5085,5.3253-6.7943L482.1026,488.85l1.5983-4.6123,17.5628,6.0862q2.4522-2.9528,4.8222-5.6824l-14.4227-4.9981,1.5984-4.6123,16.3085,5.6516c2.012-2.2521,3.9478-4.3619,5.7808-6.3168l-7.93-2.7479,1.5984-4.6123,10.03,3.4756c7.7047-7.9669,12.8452-12.5045,12.8452-12.5045a23.2227,23.2227,0,0,0-4.5936-2.3963,23.9084,23.9084,0,0,0-9.6119-1.5456c-8.854-.1463-18.7436,4.802-28.5234,14.4193-12.2027,12-22.8275,29.8754-29.9173,50.3339a161.108,161.108,0,0,0-5.4071,19.3892c-.4761,2.03-.8676,3.9624-1.194,5.8084q-.5072-3.3517-1.1828-6.7323c-3.69-18.41-10.7206-35.0155-19.7966-46.7577-7.2738-9.411-15.19-14.8232-22.8144-15.7368a20.7371,20.7371,0,0,0-8.44.2,20.1369,20.1369,0,0,0-4.228,1.52s3.8841,4.502,9.5687,12.2514l9.0253-1.809.8319,4.15-7.1356,1.43c1.3455,1.8948,2.7611,3.9347,4.2254,6.1058l14.6754-2.9416.8319,4.15L415.23,502.4171q1.7117,2.6206,3.4762,5.4482l15.8041-3.1678.8319,4.15-14.28,2.8624q1.8854,3.1307,3.7779,6.4626l14.3246-2.8713.8319,4.15-12.9957,2.6049c.1527.28.3056.5592.4579.8408q1.44,2.6617,2.7983,5.3884l12.1075-2.4268.8319,4.15-11.0276,2.21c1.0235,2.1628,2.0083,4.3346,2.9528,6.4981l9.4411-1.8924.8319,4.15-8.5764,1.7191c.6535,1.5674,1.2769,3.1172,1.8866,4.6566q-2.1941-3.5832-4.684-7.1c-9.5543-13.4593-21.1446-24.274-32.6356-30.4517-9.2095-4.9512-17.503-6.4621-23.9514-4.4656a18.2265,18.2265,0,0,0-6.7045,3.1823,17.7054,17.7054,0,0,0-2.85,2.7339s4.73,2.2238,12.069,6.41l6.5983-4.6839,2.154,3.0343-5.2168,3.7032c1.7587,1.04,3.6256,2.1705,5.5786,3.3893l10.7291-7.6163,2.154,3.0343-9.4884,6.7356q2.3124,1.4911,4.7417,3.13l11.5542-8.202,2.154,3.0343-10.44,7.4111q2.6346,1.8384,5.3471,3.8359l10.4725-7.4342,2.154,3.0344-9.501,6.7444c.2228.17.4455.34.6687.5112q2.1093,1.6212,4.1759,3.3242l8.8518-6.2836,2.1539,3.0344-8.0622,5.7231q2.3943,2.0548,4.6974,4.16l6.9023-4.9,2.154,3.0343-6.27,4.451c1.607,1.5159,3.1669,3.03,4.6727,4.5257l5.2994-3.7618,2.1539,3.0343-4.7956,3.4043c2.0942,2.1383,4.0593,4.2131,5.8682,6.1709l3.0447-2.1614,2.1539,3.0343-2.6711,1.8962c3.3638,3.7315,6.0162,6.858,7.73,8.926l.0011.1384q-1.7738-2.2785-3.866-4.5684a105.2533,105.2533,0,0,0-17.8437-15.2664,95.7118,95.7118,0,0,0-13.1215-7.9938,161.1127,161.1127,0,0,0-18.2961-8.3923c-20.1991-7.798-40.7091-11.2291-57.7513-9.6608-13.6587,1.2568-23.8231,5.6124-29.4291,12.4672a23.9132,23.9132,0,0,0-5.0269,8.3372,23.2287,23.2287,0,0,0-1.1366,5.0548s6.7841-.9948,17.8426-1.7328l3.8229-9.9025,4.5538,1.7581-3.0224,7.8291c2.6763-.1372,5.5373-.2528,8.5561-.3347l6.2163-16.1018,4.5538,1.758-5.4974,14.24q3.6093-.0444,7.4527-.0124l6.6944-17.34,4.5538,1.758-6.0488,15.668q4.2129.1022,8.6265.3215l6.0676-15.7168L370.1229,539l-5.5047,14.2587c.3668.0245.7332.0487,1.1016.0746q3.4812.245,6.9751.61l5.1285-13.2843,4.5538,1.758-4.6711,12.0995c2.738.3419,5.4608.7272,8.1507,1.1465l3.9991-10.3588,4.5538,1.7581-3.6329,9.41c2.8557.4937,5.6586,1.02,8.3888,1.5645l3.07-7.9531,4.5538,1.758-2.7785,7.1971c3.8394.8215,7.4915,1.667,10.888,2.4976l1.7641-4.5694,4.5537,1.758-1.5476,4.0088c11.6414,2.9989,19.2662,5.5195,19.2662,5.5195s-.2014-.3721-.6571-1.04a81.1516,81.1516,0,0,1,7.239,7.742,51.2323,51.2323,0,0,0-8.7835-2.8867,80.2367,80.2367,0,0,0-17.7894-2,72.959,72.959,0,0,0-11.6989.5691,122.8111,122.8111,0,0,0-15.1343,2.5313c-16.0809,3.72-30.49,10.3291-40.5721,18.6089-8.0807,6.6358-12.6309,13.7322-13.2358,20.4555a18.2286,18.2286,0,0,0,.3946,7.4109,17.7112,17.7112,0,0,0,1.4451,3.6757s3.8551-3.53,10.5169-8.726l-1.8238-7.8836,3.6254-.8387,1.442,6.2329c1.63-1.2315,3.3858-2.5283,5.2555-3.8713l-2.9657-12.819,3.6254-.8387,2.6227,11.3366q2.2584-1.572,4.6972-3.1959l-3.1937-13.8049,3.6253-.8387,2.8858,12.4736q2.7019-1.7378,5.5806-3.4874l-2.8947-12.5124,3.6253-.8387,2.6262,11.3517c.242-.1415.4835-.283.727-.4242q2.3014-1.3347,4.6622-2.5987l-2.4468-10.5759,3.6254-.8387,2.2285,9.6326c1.8739-.9555,3.7567-1.8772,5.6333-2.7633l-1.9079-8.2468,3.6254-.8387,1.7331,7.4915c2.0131-.91,4.0066-1.7772,5.9623-2.6014l-1.4648-6.3316,3.6254-.8387,1.3256,5.73c2.7739-1.1241,5.44-2.1529,7.9384-3.0817l-.8416-3.6378,3.6253-.8387.7384,3.1915c8.6282-3.0877,14.5176-4.759,14.5176-4.759s-.2864-.1486-.86-.3752a51.63,51.63,0,0,1,15.1275,4.6588,34.6908,34.6908,0,0,0-6.1361.3708,54.15,54.15,0,0,0-11.6606,3.1612,49.2462,49.2462,0,0,0-7.2006,3.2613,82.89,82.89,0,0,0-8.8695,5.3455c-9.1684,6.3267-16.5705,14.0511-20.8425,21.75-3.4239,6.17-4.5179,11.7535-3.2285,16.123a12.3018,12.3018,0,0,0,2.0873,4.5529,11.9455,11.9455,0,0,0,1.8194,1.948s1.5431-3.1721,4.434-8.0869l-3.1016-4.4948,2.067-1.4263,2.4522,3.5537c.7172-1.1775,1.4972-2.4272,2.3372-3.7342l-5.0434-7.3086,2.067-1.4264,4.46,6.4635q1.0271-1.5471,2.1544-3.1717l-5.4312-7.8707,2.067-1.4263,4.9075,7.1117q1.2642-1.7613,2.6365-3.5739l-4.9228-7.1339,2.067-1.4263,4.4661,6.472c.1167-.1488.2332-.2976.3509-.4466q1.113-1.409,2.2808-2.7882l-4.1609-6.03,2.067-1.4263,3.79,5.4919q1.4082-1.5972,2.8494-3.1325l-3.2446-4.7019,2.067-1.4263,2.9474,4.2713c1.0374-1.0709,2.0732-2.11,3.096-3.1127l-2.491-3.61,2.067-1.4263,2.2542,3.2667c1.4618-1.394,2.88-2.7014,4.2169-3.9046l-1.4312-2.074,2.067-1.4263,1.2556,1.82c4.6484-4.08,7.93-6.59,7.93-6.59s-.2166-.0222-.6326-.022a35.92,35.92,0,0,1,9.8588-.8958l.8567,105.7756-8.18,181.3346h26.9956L457.0262,686.6009l-.5681-107.7976c.19-.1467.3818-.2923.5783-.4362a31.1976,31.1976,0,0,1,13.3065.4119c-.416,0-.6326.022-.6326.022s3.2811,2.5108,7.9295,6.59l1.2556-1.82,2.0669,1.4263-1.4312,2.074c1.3374,1.2032,2.7552,2.5106,4.217,3.9046l2.2542-3.2667,2.067,1.4263-2.491,3.61c1.0228,1.0027,2.0586,2.0418,3.096,3.1127l2.9473-4.2713,2.067,1.4263-3.2445,4.7019q1.4365,1.5328,2.8493,3.1325l3.79-5.4919,2.067,1.4263-4.1609,6.03q1.1646,1.3782,2.2808,2.7882c.1177.149.2342.2978.3509.4466l4.4661-6.472,2.0669,1.4263-4.9227,7.1339q1.3716,1.8089,2.6365,3.5739l4.9075-7.1117,2.067,1.4263-5.4312,7.8707q1.1268,1.6215,2.1544,3.1717l4.46-6.4635,2.0669,1.4264-5.0433,7.3086c.84,1.307,1.62,2.5567,2.3372,3.7342l2.4522-3.5537,2.067,1.4263-3.1016,4.4948c2.8909,4.9148,4.434,8.0869,4.434,8.0869a11.9493,11.9493,0,0,0,1.8193-1.948,12.302,12.302,0,0,0,2.0874-4.5529c1.2894-4.37.1954-9.9526-3.2285-16.123-4.272-7.699-11.6741-15.4234-20.8426-21.75a82.87,82.87,0,0,0-8.8695-5.3455,49.2367,49.2367,0,0,0-7.2006-3.2613,54.1475,54.1475,0,0,0-11.6605-3.1612,31.5354,31.5354,0,0,0-8.62-.17,49.64,49.64,0,0,1,12.212-5.46c-.4979.2806-.7421.4534-.7421.4534s5.6213.79,13.9379,2.5346l.2745-3.0251,3.4363.3118-.3128,3.4481c2.4126.5371,4.9918,1.1448,7.6822,1.8264l.4926-5.4311,3.4364.3118-.5444,6.0015c1.9008.51,3.8418,1.0539,5.8061,1.6352l.6442-7.101,3.4364.3117-.7091,7.8169c1.8359.5765,3.6821,1.1849,5.5243,1.8256l.8283-9.1305,3.4364.3117-.9094,10.0246q2.3238.8632,4.6115,1.7972c.2415.099.4813.1984.7214.2977l.9761-10.76,3.4364.3117-1.0759,11.86q2.8624,1.2389,5.5676,2.4974l1.0726-11.8234,3.4363.3117-1.187,13.0853q2.443,1.18,4.7192,2.3414l.9748-10.7456,3.4364.3117L542.24,595.5161c1.8875.9972,3.6644,1.9662,5.3176,2.8912l.5359-5.908,3.4364.3117-.6778,7.4726c6.777,3.93,10.7649,6.685,10.7649,6.685a16.4221,16.4221,0,0,0,.8624-3.5593,16.9021,16.9021,0,0,0-.5752-6.8576c-1.4064-6.1-6.4841-12.0425-14.7466-17.1156-10.3092-6.33-24.3815-10.5778-39.6241-11.9605a113.8788,113.8788,0,0,0-14.2227-.41,67.65,67.65,0,0,0-10.8185.9575,74.3983,74.3983,0,0,0-16.0884,4.0876,43.9856,43.9856,0,0,0-9.9533,5.2692l-.0021-.4113a75.5264,75.5264,0,0,1,9.0782-10.3962c-.4427.6634-.6376,1.0325-.6376,1.0325s7.4941-2.5631,18.9444-5.6385l-1.5669-3.9378,4.4731-1.78,1.786,4.4885c3.3412-.8536,6.9344-1.7244,10.7124-2.5735l-2.8131-7.07,4.4731-1.78,3.1086,7.8122c2.687-.565,5.4458-1.1121,8.2571-1.6279l-3.678-9.2433,4.4731-1.78,4.0488,10.1752c2.6485-.4407,5.33-.8483,8.0266-1.2132l-4.7292-11.8851,4.4731-1.78,5.1923,13.0489q3.4366-.3917,6.8727-.6725c.3629-.0293.7241-.0568,1.0856-.0847l-5.5732-14.0062,4.4731-1.78,6.1431,15.4384q4.3437-.264,8.5042-.4045l-6.1241-15.39,4.4732-1.78,6.7776,17.033q3.7847-.0729,7.35-.0633l-5.5658-13.9876,4.4731-1.78,6.2936,15.8166c2.978.05,5.8006.1352,8.4415.2433l-3.06-7.69,4.4731-1.78,3.87,9.727c10.9133.6159,17.6139,1.5282,17.6139,1.5282A22.9052,22.9052,0,0,0,599.42,548.2147ZM442.1567,553.362c-.0141-.025-.0268-.0491-.0409-.0741q-1.0222-1.9071-2.1362-3.8067l6.8449-1.372.8319,4.15Zm4.3082,8.9153,2.034-.4077.8319,4.15-1.3187.2644q-.4429-1.1934-.9225-2.3922C446.8966,563.3687,446.6851,562.8271,446.4649,562.2773Zm17.987,3.11-1.7965-1.2753,2.1539-3.0343,2.4277,1.7233Q465.8032,564.0817,464.4519,565.3874Z" transform="translate(-301.1972 -389.0651)" style="fill:url(#New_Gradient_Swatch_9-2)"/><path d="M1069.5742,584.4257a12.8976,12.8976,0,0,0-2.7577-4.469c-3.0617-3.6664-8.5684-5.9594-15.9426-6.5616-9.2009-.7514-20.2446,1.2128-31.0965,5.5309a86.9108,86.9108,0,0,0-9.8221,4.628,51.6318,51.6318,0,0,0-7.0332,4.3845q-1.5182,1.07-2.93,2.1873.41-.4254.8335-.8578l-2.6229-1.8619,1.1781-1.66,2.8984,2.0574c.8235-.818,1.6767-1.6461,2.5556-2.4752l-3.4293-2.4344,1.1781-1.66,3.7751,2.68q1.2576-1.1475,2.5691-2.2751l-4.4095-3.13,1.1781-1.66,4.8413,3.4366q1.1293-.9288,2.2839-1.8181c.1221-.0938.2439-.1866.3658-.2795l-5.1964-3.6888,1.178-1.66,5.7278,4.066q1.4805-1.092,2.9245-2.098l-5.71-4.0533,1.1781-1.66,6.3194,4.4859q1.326-.8957,2.5933-1.7116l-5.19-3.6839,1.1781-1.66,5.8681,4.1656c1.0682-.6666,2.0892-1.2851,3.0511-1.8537l-2.8532-2.0254,1.1781-1.66,3.6088,2.5618c4.0137-2.29,6.6009-3.5058,6.6009-3.5058a9.68,9.68,0,0,0-1.5589-1.4953,9.9691,9.9691,0,0,0-3.6669-1.74c-3.5269-1.092-8.0629-.2656-13.1,2.4424-6.2849,3.3787-12.624,9.2937-17.85,16.655a67.1676,67.1676,0,0,0-4.4273,7.13,39.9112,39.9112,0,0,0-2.72,5.8,47.9638,47.9638,0,0,0-1.79,5.3085h-.6477q.1073-1.1649.1685-2.3611c.7016-1.6536,2.06-4.7646,3.9551-8.688l-2.2207-.7695.8741-2.5226,2.5313.8772c.8527-1.7118,1.7895-3.5355,2.8025-5.429l-3.9869-1.3816.8742-2.5226,4.4057,1.5267c.7367-1.3326,1.507-2.6888,2.3094-4.0557l-5.2127-1.8064.8742-2.5226,5.7383,1.9885c.7749-1.2714,1.5757-2.5445,2.4-3.8087l-6.7025-2.3227.8741-2.5226,7.359,2.55q1.0811-1.5844,2.2086-3.1284c.1193-.163.2386-.3245.358-.4864l-7.8988-2.7372.8742-2.5226,8.7064,3.0171q1.4635-1.9188,2.9126-3.716l-8.6794-3.0077.8742-2.5226,9.6056,3.3287q1.3411-1.6149,2.6375-3.1079l-7.8883-2.7336.8742-2.5226,8.92,3.091c1.1-1.2317,2.1592-2.3856,3.1617-3.4549l-4.337-1.5029.8742-2.5226,5.4855,1.901c4.214-4.3574,7.0255-6.8392,7.0255-6.8392a12.706,12.706,0,0,0-2.5124-1.3106,13.0763,13.0763,0,0,0-5.2571-.8453c-4.8425-.08-10.2514,2.6263-15.6,7.8864-6.674,6.5629-12.4851,16.34-16.3627,27.5292a88.1161,88.1161,0,0,0-2.9574,10.6046c-.26,1.11-.4745,2.1671-.653,3.1768q-.2774-1.8331-.6469-3.6821c-2.0182-10.069-5.8635-19.1511-10.8274-25.5733-3.9783-5.1472-8.3079-8.1073-12.4779-8.607a11.341,11.341,0,0,0-4.6161.1093,11.0131,11.0131,0,0,0-2.3124.8312s2.1243,2.4622,5.2334,6.7007l4.9362-.99.4551,2.27-3.9027.7823c.7359,1.0363,1.51,2.152,2.311,3.3395l8.0264-1.6089.455,2.27-7.0983,1.4228q.9361,1.4334,1.9013,2.98l8.6437-1.7326.455,2.27-7.81,1.5655q1.0311,1.7123,2.0663,3.5346l7.8345-1.57.455,2.27-7.1078,1.4247c.0836.153.1672.3058.2505.46q.7876,1.4559,1.53,2.9472l6.622-1.3274.455,2.27-6.0314,1.209c.56,1.1829,1.0984,2.3707,1.615,3.554l5.1636-1.035.455,2.27-4.6907.94c.3574.8572.6984,1.7049,1.0318,2.5468q-1.2-1.96-2.5618-3.883c-5.2256-7.3613-11.5647-13.2763-17.85-16.655-5.037-2.708-9.5729-3.5344-13.1-2.4424a9.9684,9.9684,0,0,0-3.6669,1.74,9.68,9.68,0,0,0-1.5589,1.4953s2.5871,1.2162,6.6009,3.5058l3.6088-2.5618,1.1781,1.66-2.8532,2.0254c.9619.5686,1.9829,1.1871,3.0511,1.8537l5.8681-4.1656,1.1781,1.66-5.19,3.6839q1.2648.8155,2.5934,1.7116l6.3194-4.4859,1.1781,1.66-5.71,4.0533q1.4409,1.0056,2.9245,2.098l5.7277-4.066,1.1781,1.66-5.1964,3.6888c.1219.0929.2437.1857.3658.2795q1.1535.8868,2.2839,1.8181l4.8413-3.4366,1.1781,1.66-4.4095,3.13q1.31,1.1238,2.5691,2.2751l3.7751-2.68,1.1781,1.66-3.4293,2.4344c.8789.8291,1.7321,1.6572,2.5556,2.4752l2.8984-2.0574,1.1781,1.66-2.6229,1.8619c1.1454,1.17,2.22,2.3043,3.2095,3.3751l1.6652-1.1821,1.1781,1.6595-1.461,1.0371c1.84,2.0409,3.2905,3.7509,4.228,4.8819l.0006.0757q-.97-1.246-2.1144-2.4986a57.5674,57.5674,0,0,0-9.7593-8.35,52.345,52.345,0,0,0-7.1766-4.3721,88.1,88.1,0,0,0-10.0067-4.59c-11.0476-4.265-22.2652-6.1416-31.5861-5.2838-7.47.6873-13.03,3.07-16.0957,6.8187a13.0791,13.0791,0,0,0-2.7494,4.56,12.7064,12.7064,0,0,0-.6217,2.7646s3.7105-.5441,9.7588-.9477l2.0908-5.416,2.4907.9615-1.6531,4.282c1.4638-.075,3.0285-.1382,4.68-.183l3.4-8.8066,2.4906.9615-3.0067,7.7882q1.974-.0243,4.0762-.0068l3.6613-9.4839,2.4906.9616-3.3082,8.5693q2.3042.0558,4.7181.1758l3.3186-8.596,2.4906.9615-3.0107,7.7986c.2006.0134.401.0266.6025.0408q1.9039.134,3.8149.3338l2.8049-7.2656,2.4907.9615-2.5548,6.6176c1.4975.187,2.9867.3977,4.4578.627l2.1873-5.6655,2.4906.9615-1.9869,5.1467c1.5619.27,3.0948.5576,4.5881.8556l1.6792-4.35,2.4907.9616-1.52,3.9363c2.1.4493,4.0973.9117,5.955,1.366l.9648-2.4991,2.4906.9615-.8465,2.1925c6.3671,1.64,10.5374,3.0188,10.5374,3.0188s-.11-.2035-.3594-.5689A44.3813,44.3813,0,0,1,985.4,599.051a28.0046,28.0046,0,0,0-4.804-1.5788,43.8815,43.8815,0,0,0-9.73-1.0937,39.912,39.912,0,0,0-6.3985.3113,67.1669,67.1669,0,0,0-8.2774,1.3845c-8.7952,2.0347-16.6759,5.6493-22.19,10.1778-4.42,3.6293-6.9083,7.5106-7.2391,11.1877a9.97,9.97,0,0,0,.2158,4.0533,9.6872,9.6872,0,0,0,.79,2.01s2.1085-1.9306,5.7521-4.7726l-.9976-4.3117,1.9829-.4588.7886,3.409c.8916-.6735,1.8518-1.3828,2.8745-2.1173l-1.622-7.0111,1.9828-.4588,1.4344,6.2q1.2352-.86,2.5691-1.748l-1.7468-7.55,1.9828-.4587,1.5784,6.8222q1.4776-.95,3.0522-1.9073l-1.5832-6.8435,1.9828-.4587,1.4363,6.2086c.1324-.0774.2645-.1548.3976-.232q1.2588-.73,2.55-1.4213l-1.3382-5.7843,1.9829-.4588,1.2188,5.2684c1.0249-.5226,2.0547-1.0267,3.081-1.5113l-1.0435-4.51,1.9829-.4587.9479,4.0973c1.101-.4978,2.1913-.972,3.261-1.4228l-.8012-3.4629,1.9828-.4588.725,3.1338c1.5172-.6147,2.9753-1.1774,4.3418-1.6854l-.46-1.99,1.9828-.4587.4039,1.7455c4.719-1.6887,7.94-2.6028,7.94-2.6028s-.1566-.0813-.47-.2052a28.2387,28.2387,0,0,1,8.2737,2.548,18.9835,18.9835,0,0,0-3.3561.2028,29.6153,29.6153,0,0,0-6.3775,1.729,26.9423,26.9423,0,0,0-3.9383,1.7837,45.3442,45.3442,0,0,0-4.851,2.9237,37.2214,37.2214,0,0,0-11.3994,11.8958c-1.8727,3.3748-2.471,6.4283-1.7658,8.8182a6.7283,6.7283,0,0,0,1.1416,2.49,6.5359,6.5359,0,0,0,.9951,1.0654s.844-1.7349,2.4251-4.423l-1.6964-2.4583,1.13-.78,1.3412,1.9436c.3923-.644.8189-1.3275,1.2783-2.0423l-2.7584-3.9974,1.13-.78,2.4394,3.5351q.5618-.8461,1.1784-1.7347l-2.9705-4.3047,1.13-.78,2.684,3.89q.6915-.9633,1.442-1.9547l-2.6924-3.9017,1.1305-.78,2.4427,3.54c.0638-.0814.1275-.1627.1919-.2442q.6087-.7707,1.2474-1.525l-2.2757-3.2979,1.13-.78,2.0727,3.0037q.77-.8735,1.5584-1.7133l-1.7745-2.5715,1.13-.78,1.612,2.336c.5674-.5857,1.1339-1.154,1.6933-1.7024l-1.3624-1.9744,1.13-.78,1.2329,1.7867c.8-.7624,1.5749-1.4775,2.3064-2.1355l-.7828-1.1344,1.1305-.78.6867.9952c2.5424-2.2313,4.3369-3.6045,4.3369-3.6045s-.1184-.0122-.346-.0121a19.6459,19.6459,0,0,1,5.3921-.49l.4686,57.8521-4.4739,99.1778H997.348l-5.6538-97.5687-.3107-58.958c.1037-.08.2088-.16.3163-.2385a17.0622,17.0622,0,0,1,7.2777.2252c-.2275,0-.346.0121-.346.0121s1.7946,1.3732,4.3369,3.6045l.6868-.9952,1.13.78-.7828,1.1344c.7314.658,1.5068,1.3731,2.3064,2.1355l1.2329-1.7867,1.13.78-1.3624,1.9744c.5594.5484,1.1259,1.1167,1.6933,1.7024l1.612-2.336,1.13.78-1.7746,2.5715q.7857.8385,1.5584,1.7133l2.0728-3.0037,1.13.78-2.2757,3.2979q.6369.7537,1.2474,1.525c.0644.0815.1281.1628.1919.2442l2.4427-3.54,1.13.78-2.6924,3.9017q.75.9894,1.442,1.9547l2.6841-3.89,1.13.78-2.9705,4.3047q.6164.887,1.1783,1.7347l2.4394-3.5351,1.13.78-2.7584,3.9974c.4595.7148.886,1.3983,1.2784,2.0423l1.3411-1.9436,1.13.78-1.6963,2.4583c1.5811,2.6881,2.4251,4.423,2.4251,4.423a6.531,6.531,0,0,0,.995-1.0654,6.7285,6.7285,0,0,0,1.1417-2.49c.7052-2.39.1068-5.4434-1.7658-8.8182a37.2207,37.2207,0,0,0-11.3995-11.8958,45.3343,45.3343,0,0,0-4.851-2.9237,26.937,26.937,0,0,0-3.9382-1.7837,29.6184,29.6184,0,0,0-6.3775-1.729,17.2508,17.2508,0,0,0-4.7146-.0931,27.1513,27.1513,0,0,1,6.6791-2.9861c-.2723.1534-.4059.2479-.4059.2479s3.0746.4321,7.6232,1.3863l.15-1.6545,1.8794.1705-.1711,1.8859c1.32.2938,2.73.6261,4.2016.9989l.2695-2.97,1.88.17-.2978,3.2824c1.04.2787,2.1012.5764,3.1756.8943l.3523-3.8837,1.8794.1705-.3878,4.2753c1.0041.3153,2.0139.6481,3.0215.9984l.453-4.9937,1.8794.17-.4973,5.4827q1.2709.4722,2.5221.983c.1321.0541.2633.1085.3946.1628l.5339-5.8849,1.8794.1705-.5884,6.4867q1.5656.6776,3.0451,1.3659l.5866-6.4666,1.88.1705-.6492,7.1567q1.3362.6453,2.5811,1.2806l.5331-5.8771,1.88.17-.6029,6.6456c1.0323.5454,2.0042,1.0754,2.9084,1.5813l.2931-3.2313,1.88.1705-.3708,4.087c3.7066,2.15,5.8877,3.6562,5.8877,3.6562a8.9778,8.9778,0,0,0,.4717-1.9467,9.2444,9.2444,0,0,0-.3146-3.7506c-.7692-3.336-3.5464-6.5864-8.0654-9.3611-5.6385-3.4621-13.335-5.7853-21.6717-6.5416a62.3,62.3,0,0,0-7.7788-.2244,37.0068,37.0068,0,0,0-5.9171.5237,40.6938,40.6938,0,0,0-8.7992,2.2357,24.0542,24.0542,0,0,0-5.4438,2.8819l-.0012-.225a41.3164,41.3164,0,0,1,4.9652-5.686c-.2421.3628-.3487.5647-.3487.5647s4.0987-1.4018,10.3613-3.0839l-.857-2.1537,2.4465-.9735.9768,2.4549c1.8274-.4668,3.7926-.9431,5.8589-1.4075L1013.2427,586l2.4465-.9735,1.7,4.2728c1.47-.3091,2.9784-.6083,4.516-.89l-2.0116-5.0554,2.4465-.9735,2.2144,5.5651c1.4486-.241,2.9151-.4639,4.39-.6635l-2.5865-6.5,2.4465-.9735,2.84,7.1369q1.88-.2142,3.7589-.3678c.1985-.016.396-.0311.5937-.0463l-3.0481-7.66,2.4465-.9735,3.36,8.4437q2.3758-.1444,4.6512-.2212l-3.3494-8.4175,2.4465-.9735,3.7069,9.3159q2.07-.04,4.02-.0346l-3.0442-7.65,2.4465-.9735,3.4422,8.6506c1.6288.0274,3.1726.074,4.6169.1331l-1.6736-4.2061,2.4465-.9735,2.1169,5.32c5.9688.3368,9.6336.8358,9.6336.8358A12.53,12.53,0,0,0,1069.5742,584.4257Zm-86.0126,2.8153-.0224-.0406q-.559-1.043-1.1683-2.0819l3.7437-.75.455,2.27Zm2.3563,4.876,1.1125-.223.455,2.27-.7213.1446q-.2422-.6528-.5045-1.3084C986.154,592.714,986.0383,592.4177,985.9179,592.117Zm9.8376,1.701-.9825-.6975,1.1781-1.6595,1.3277.9425Q996.4946,593.1039,995.7555,593.818Z" transform="translate(-301.1972 -389.0651)" style="fill:url(#New_Gradient_Swatch_9-3)"/></svg>